<?xml version="1.0" encoding="UTF-8"?>
<svg xmlns="http://www.w3.org/2000/svg" xmlns:xlink="http://www.w3.org/1999/xlink" width="192px" height="91px" viewBox="0 0 191 91" version="1.1">
<g id="surface1">
<path style=" stroke:none;fill-rule:nonzero;fill:rgb(7.843138%,28.627452%,31.764707%);fill-opacity:1;" d="M 55.273438 43.570312 C 55.273438 47.667969 54.273438 51.289062 52.273438 54.4375 C 50.371094 57.488281 47.800781 59.820312 44.5625 61.441406 C 41.417969 63.0625 38.085938 63.871094 34.5625 63.871094 C 30.851562 63.871094 27.328125 62.917969 23.996094 61.011719 L 24.28125 59.726562 L 26.707031 59.871094 L 29.136719 59.726562 C 32.851562 59.15625 35.753906 57.488281 37.847656 54.722656 C 39.945312 51.863281 40.992188 48.097656 40.992188 43.425781 C 40.992188 38.183594 39.800781 33.800781 37.421875 30.273438 C 35.136719 26.652344 31.945312 24.839844 27.851562 24.839844 C 25.660156 24.839844 24.042969 25.460938 22.996094 26.699219 C 22.042969 27.9375 21.566406 29.320312 21.566406 30.84375 L 21.566406 70.734375 C 21.566406 74.546875 21.851562 77.550781 22.421875 79.742188 C 23.089844 81.9375 24.234375 84.128906 25.851562 86.320312 L 26.996094 88.035156 L 25.851562 89.464844 L 1 89.464844 L 0 86.890625 C 2.476562 86.226562 4.191406 85.605469 5.140625 85.035156 C 6.1875 84.460938 6.902344 83.652344 7.285156 82.601562 C 7.664062 81.554688 7.855469 79.886719 7.855469 77.597656 L 7.855469 39.566406 C 7.855469 36.230469 7.570312 33.703125 7 31.988281 C 6.523438 30.175781 5.332031 28.699219 3.429688 27.554688 L 1.714844 26.554688 L 2.285156 24.695312 C 5.046875 23.839844 8.617188 23.078125 12.996094 22.410156 C 17.472656 21.742188 21.710938 21.410156 25.707031 21.410156 C 35.421875 21.410156 42.753906 23.457031 47.703125 27.554688 C 52.75 31.558594 55.273438 36.898438 55.273438 43.570312 Z M 87.25 86.035156 C 90.011719 86.035156 92.4375 85.558594 94.535156 84.605469 C 96.628906 83.554688 98.675781 81.839844 100.675781 79.457031 L 102.390625 80.742188 C 100.199219 83.890625 97.390625 86.367188 93.960938 88.179688 C 90.628906 89.894531 86.964844 90.753906 82.964844 90.753906 C 78.585938 90.753906 74.632812 89.703125 71.109375 87.605469 C 67.683594 85.511719 64.96875 82.652344 62.96875 79.027344 C 60.96875 75.3125 59.96875 71.117188 59.96875 66.445312 C 59.96875 59.011719 62.207031 53.101562 66.683594 48.71875 C 71.253906 44.238281 77.296875 41.996094 84.820312 41.996094 C 90.152344 41.996094 94.484375 43.285156 97.820312 45.859375 C 101.246094 48.335938 102.960938 51.578125 102.960938 55.578125 C 102.960938 60.15625 101.007812 63.824219 97.105469 66.589844 C 93.296875 69.257812 88.058594 70.59375 81.394531 70.59375 C 78.726562 70.59375 76.300781 70.402344 74.109375 70.019531 C 74.585938 74.976562 76.011719 78.886719 78.394531 81.746094 C 80.773438 84.605469 83.726562 86.035156 87.25 86.035156 Z M 83.25 45.429688 C 80.296875 45.429688 77.964844 47.238281 76.253906 50.863281 C 74.632812 54.386719 73.824219 59.34375 73.824219 65.730469 L 73.824219 68.019531 C 74.871094 68.019531 76.15625 67.921875 77.679688 67.734375 C 81.679688 67.257812 84.726562 65.96875 86.820312 63.871094 C 89.011719 61.679688 90.105469 58.820312 90.105469 55.292969 C 90.105469 52.433594 89.4375 50.097656 88.105469 48.289062 C 86.867188 46.382812 85.25 45.429688 83.25 45.429688 Z M 125.058594 90.753906 C 121.15625 90.753906 118.347656 89.894531 116.632812 88.179688 C 114.917969 86.367188 114.0625 83.460938 114.0625 79.457031 L 114.0625 49.144531 L 106.921875 49.144531 C 106.921875 47.527344 107.015625 46.476562 107.207031 46 C 107.394531 45.523438 107.96875 45.140625 108.917969 44.855469 C 112.0625 44 114.539062 42.664062 116.347656 40.851562 C 118.15625 39.042969 119.632812 36.421875 120.773438 32.988281 C 121.058594 31.941406 121.535156 31.320312 122.203125 31.128906 C 122.871094 30.84375 124.488281 30.703125 127.058594 30.703125 L 127.058594 43.570312 L 138.769531 43.570312 C 138.769531 44.808594 138.582031 45.953125 138.199219 47 C 137.820312 47.953125 137.296875 48.667969 136.628906 49.144531 L 127.058594 49.144531 L 127.058594 81.316406 C 127.058594 84.175781 128.25 85.605469 130.628906 85.605469 C 131.675781 85.605469 132.820312 85.273438 134.058594 84.605469 C 135.390625 83.9375 136.582031 83.03125 137.628906 81.886719 L 138.769531 83.316406 C 134.675781 88.273438 130.105469 90.753906 125.058594 90.753906 Z M 125.058594 90.753906 "/>
<path style=" stroke:none;fill-rule:nonzero;fill:rgb(96.470588%,52.156866%,19.607843%);fill-opacity:1;" d="M 172.800781 81.457031 C 172.800781 83.910156 173.574219 85.136719 175.125 85.136719 C 176.675781 85.136719 178.1875 84.523438 179.65625 83.296875 L 180.636719 84.523438 C 177.613281 87.871094 174.066406 89.546875 169.984375 89.546875 C 167.046875 89.546875 164.925781 88.8125 163.617188 87.339844 C 162.3125 85.789062 161.660156 83.296875 161.660156 79.867188 L 161.660156 55.601562 C 161.660156 54.457031 161.128906 53.882812 160.066406 53.882812 L 156.273438 53.882812 L 155.90625 52.535156 C 157.539062 51.148438 159.578125 50.003906 162.027344 49.105469 C 164.476562 48.207031 166.921875 47.757812 169.371094 47.757812 C 170.351562 47.757812 171.167969 48.003906 171.820312 48.492188 C 172.472656 48.984375 172.800781 49.636719 172.800781 50.453125 Z M 160.433594 35.992188 C 160.433594 34.519531 161.25 32.886719 162.882812 31.089844 C 164.515625 29.292969 166.027344 28.394531 167.414062 28.394531 C 168.882812 28.394531 170.433594 29.292969 172.066406 31.089844 C 173.777344 32.886719 174.636719 34.519531 174.636719 35.992188 C 174.636719 37.542969 173.777344 39.21875 172.066406 41.015625 C 170.433594 42.730469 168.882812 43.589844 167.414062 43.589844 C 166.027344 43.589844 164.515625 42.730469 162.882812 41.015625 C 161.25 39.21875 160.433594 37.542969 160.433594 35.992188 Z M 160.433594 35.992188 "/>
<path style="fill-rule:nonzero;fill:rgb(97.647059%,53.725493%,21.176471%);fill-opacity:1;stroke-width:2;stroke-linecap:butt;stroke-linejoin:miter;stroke:rgb(97.647059%,51.372552%,18.431373%);stroke-opacity:1;stroke-miterlimit:4;" d="M 185.001083 38.501232 C 185.001083 35.001455 189.500091 31.998914 189.500091 31.998914 C 189.500091 31.998914 191.001037 30.499556 192.000391 28.499137 C 192.999745 26.498718 196.001636 24.99936 197.000991 24.99936 C 198.000345 24.99936 199.50129 24.498299 200.500644 24.99936 C 201.499999 25.500421 202.499353 25.500421 204.50189 26.498718 C 206.500598 27.50084 209.000898 31.998914 209.000898 31.998914 C 209.000898 31.998914 209.498661 32.499975 211.501198 33.498272 C 213.499906 34.500394 213.499906 38.998468 213.499906 38.998468 C 213.599459 42.303175 212.50821 42.945757 210.000252 43.500367 C 210.000252 43.500367 190.001683 44.001428 188.500737 43.500367 C 186.999791 42.999306 185.001083 42.001009 185.001083 38.501232 Z M 185.001083 38.501232 " transform="matrix(1.02019,0,0,1.02127,-36.21675,-0.406106)"/>
<path style="fill-rule:nonzero;fill:rgb(97.647059%,53.725493%,21.176471%);fill-opacity:1;stroke-width:0.3;stroke-linecap:butt;stroke-linejoin:miter;stroke:rgb(97.254902%,35.686275%,0%);stroke-opacity:1;stroke-miterlimit:4;" d="M 178.985813 9.814535 C 180.559509 9.103105 182.447178 9.432045 184.235294 10.579513 C 186.02724 11.726981 187.700488 13.681501 188.826197 16.175332 C 189.955735 18.669162 190.315656 21.216541 189.994025 23.316407 C 189.672393 25.420098 188.673039 27.053327 187.099344 27.764757 C 185.525648 28.476187 183.637979 28.147247 181.846034 26.999779 C 180.057917 25.852311 178.384669 23.89779 177.255131 21.40396 C 176.129422 18.91013 175.769501 16.362751 176.087303 14.262885 C 176.412764 12.159194 177.412118 10.525965 178.985813 9.814535 Z M 178.985813 9.814535 " transform="matrix(1.02019,0,0,1.02127,-36.21675,-0.406106)"/>
<path style="fill-rule:nonzero;fill:rgb(97.647059%,53.725493%,21.176471%);fill-opacity:1;stroke-width:0.3;stroke-linecap:butt;stroke-linejoin:miter;stroke:rgb(97.254902%,35.686275%,0%);stroke-opacity:1;stroke-miterlimit:4;" d="M 197.479608 0.814561 C 199.198804 0.638616 200.887368 1.548941 202.21984 3.201295 C 203.556141 4.857473 204.524864 7.240382 204.804377 9.963705 C 205.083889 12.687029 204.620587 15.215283 203.651865 17.108605 C 202.679313 19.001927 201.216657 20.233543 199.497461 20.409488 C 197.778266 20.585433 196.093531 19.678934 194.75723 18.022755 C 193.420929 16.366576 192.452206 13.983668 192.172693 11.260344 C 191.89318 8.540845 192.356483 6.008766 193.325205 4.115444 C 194.297757 2.225947 195.764242 0.990507 197.479608 0.814561 Z M 197.479608 0.814561 " transform="matrix(1.02019,0,0,1.02127,-36.21675,-0.406106)"/>
<path style="fill-rule:nonzero;fill:rgb(97.647059%,53.725493%,21.176471%);fill-opacity:1;stroke-width:0.3;stroke-linecap:butt;stroke-linejoin:miter;stroke:rgb(97.254902%,35.686275%,0%);stroke-opacity:1;stroke-miterlimit:4;" d="M 219.852123 10.105226 C 221.391358 10.893154 222.306475 12.576107 222.524725 14.691273 C 222.739146 16.806439 222.25287 19.334693 221.000806 21.767325 C 219.748741 24.199957 217.97977 26.07033 216.134219 27.126 C 214.288669 28.181671 212.385684 28.414989 210.850278 27.627061 C 209.314871 26.835308 208.395925 25.152355 208.181504 23.03719 C 207.963255 20.922024 208.453359 18.397594 209.705424 15.961138 C 210.957488 13.528506 212.72646 11.661958 214.57201 10.606287 C 216.417561 9.550617 218.316717 9.313474 219.852123 10.105226 Z M 219.852123 10.105226 " transform="matrix(1.02019,0,0,1.02127,-36.21675,-0.406106)"/>
</g>
</svg>
