<?xml version="1.0" encoding="UTF-8"?>
<svg xmlns="http://www.w3.org/2000/svg" xmlns:xlink="http://www.w3.org/1999/xlink" width="91px" height="43px" viewBox="0 0 90 43" version="1.1">
<g id="surface1">
<path style=" stroke:none;fill-rule:nonzero;fill:rgb(7.843138%,28.627452%,31.764707%);fill-opacity:1;" d="M 26.144531 20.589844 C 26.144531 22.523438 25.675781 24.234375 24.738281 25.722656 C 23.847656 27.164062 22.640625 28.265625 21.125 29.03125 C 19.648438 29.796875 18.085938 30.179688 16.4375 30.179688 C 14.695312 30.179688 13.042969 29.730469 11.484375 28.828125 L 11.617188 28.222656 L 12.753906 28.289062 L 13.890625 28.222656 C 15.632812 27.953125 16.992188 27.164062 17.976562 25.859375 C 18.957031 24.507812 19.449219 22.726562 19.449219 20.519531 C 19.449219 18.042969 18.890625 15.972656 17.777344 14.304688 C 16.703125 12.59375 15.207031 11.738281 13.289062 11.738281 C 12.261719 11.738281 11.503906 12.03125 11.015625 12.617188 C 10.566406 13.203125 10.34375 13.855469 10.34375 14.574219 L 10.34375 33.425781 C 10.34375 35.226562 10.476562 36.644531 10.746094 37.679688 C 11.058594 38.71875 11.59375 39.753906 12.351562 40.789062 L 12.890625 41.597656 L 12.351562 42.273438 L 0.703125 42.273438 L 0.234375 41.058594 C 1.394531 40.746094 2.199219 40.449219 2.644531 40.179688 C 3.132812 39.910156 3.46875 39.527344 3.648438 39.03125 C 3.828125 38.535156 3.917969 37.75 3.917969 36.667969 L 3.917969 18.695312 C 3.917969 17.121094 3.78125 15.925781 3.515625 15.117188 C 3.292969 14.257812 2.734375 13.5625 1.84375 13.019531 L 1.039062 12.546875 L 1.304688 11.667969 C 2.601562 11.265625 4.273438 10.90625 6.328125 10.589844 C 8.425781 10.273438 10.410156 10.117188 12.285156 10.117188 C 16.839844 10.117188 20.273438 11.085938 22.59375 13.019531 C 24.960938 14.914062 26.144531 17.433594 26.144531 20.589844 Z M 41.132812 40.652344 C 42.425781 40.652344 43.566406 40.429688 44.546875 39.976562 C 45.527344 39.480469 46.488281 38.671875 47.425781 37.546875 L 48.230469 38.152344 C 47.203125 39.640625 45.886719 40.8125 44.277344 41.667969 C 42.714844 42.476562 41 42.882812 39.125 42.882812 C 37.070312 42.882812 35.21875 42.386719 33.566406 41.394531 C 31.960938 40.40625 30.6875 39.054688 29.75 37.34375 C 28.8125 35.585938 28.34375 33.605469 28.34375 31.398438 C 28.34375 27.882812 29.394531 25.09375 31.492188 23.019531 C 33.632812 20.902344 36.46875 19.84375 39.992188 19.84375 C 42.492188 19.84375 44.523438 20.453125 46.085938 21.667969 C 47.695312 22.839844 48.496094 24.371094 48.496094 26.261719 C 48.496094 28.425781 47.582031 30.160156 45.753906 31.464844 C 43.96875 32.726562 41.511719 33.359375 38.386719 33.359375 C 37.136719 33.359375 36 33.265625 34.972656 33.085938 C 35.195312 35.429688 35.863281 37.277344 36.980469 38.628906 C 38.097656 39.976562 39.480469 40.652344 41.132812 40.652344 Z M 39.257812 21.464844 C 37.875 21.464844 36.78125 22.320312 35.976562 24.035156 C 35.21875 25.699219 34.839844 28.042969 34.839844 31.058594 L 34.839844 32.140625 C 35.332031 32.140625 35.933594 32.09375 36.648438 32.007812 C 38.523438 31.78125 39.949219 31.171875 40.929688 30.179688 C 41.957031 29.144531 42.472656 27.792969 42.472656 26.128906 C 42.472656 24.777344 42.160156 23.671875 41.535156 22.816406 C 40.953125 21.917969 40.195312 21.464844 39.257812 21.464844 Z M 58.855469 42.882812 C 57.027344 42.882812 55.710938 42.476562 54.90625 41.667969 C 54.101562 40.8125 53.703125 39.4375 53.703125 37.546875 L 53.703125 23.222656 L 50.355469 23.222656 C 50.355469 22.457031 50.398438 21.960938 50.488281 21.734375 C 50.574219 21.511719 50.84375 21.332031 51.289062 21.195312 C 52.765625 20.792969 53.925781 20.160156 54.773438 19.304688 C 55.621094 18.449219 56.3125 17.210938 56.847656 15.585938 C 56.980469 15.09375 57.203125 14.800781 57.515625 14.710938 C 57.832031 14.574219 58.589844 14.507812 59.792969 14.507812 L 59.792969 20.589844 L 65.28125 20.589844 C 65.28125 21.171875 65.195312 21.714844 65.015625 22.207031 C 64.835938 22.660156 64.59375 22.996094 64.277344 23.222656 L 59.792969 23.222656 L 59.792969 38.425781 C 59.792969 39.773438 60.351562 40.449219 61.464844 40.449219 C 61.957031 40.449219 62.492188 40.292969 63.074219 39.976562 C 63.699219 39.664062 64.257812 39.234375 64.746094 38.695312 L 65.28125 39.371094 C 63.363281 41.710938 61.222656 42.882812 58.855469 42.882812 Z M 58.855469 42.882812 "/>
<path style=" stroke:none;fill-rule:nonzero;fill:rgb(96.470588%,52.156866%,19.607843%);fill-opacity:1;" d="M 81.234375 38.492188 C 81.234375 39.648438 81.597656 40.230469 82.324219 40.230469 C 83.050781 40.230469 83.757812 39.941406 84.449219 39.359375 L 84.90625 39.941406 C 83.492188 41.523438 81.828125 42.3125 79.914062 42.3125 C 78.539062 42.3125 77.542969 41.964844 76.929688 41.269531 C 76.320312 40.539062 76.011719 39.359375 76.011719 37.738281 L 76.011719 26.273438 C 76.011719 25.734375 75.761719 25.460938 75.265625 25.460938 L 73.488281 25.460938 L 73.316406 24.824219 C 74.082031 24.167969 75.035156 23.628906 76.183594 23.203125 C 77.332031 22.777344 78.480469 22.566406 79.628906 22.566406 C 80.085938 22.566406 80.46875 22.683594 80.773438 22.914062 C 81.082031 23.144531 81.234375 23.453125 81.234375 23.839844 Z M 75.4375 17.007812 C 75.4375 16.3125 75.820312 15.539062 76.585938 14.691406 C 77.351562 13.839844 78.058594 13.417969 78.710938 13.417969 C 79.398438 13.417969 80.125 13.839844 80.890625 14.691406 C 81.691406 15.539062 82.09375 16.3125 82.09375 17.007812 C 82.09375 17.738281 81.691406 18.53125 80.890625 19.382812 C 80.125 20.191406 79.398438 20.597656 78.710938 20.597656 C 78.058594 20.597656 77.351562 20.191406 76.585938 19.382812 C 75.820312 18.53125 75.4375 17.738281 75.4375 17.007812 Z M 75.4375 17.007812 "/>
<path style="fill-rule:nonzero;fill:rgb(97.647059%,53.725493%,21.176471%);fill-opacity:1;stroke-width:2;stroke-linecap:butt;stroke-linejoin:miter;stroke:rgb(97.647059%,51.372552%,18.431373%);stroke-opacity:1;stroke-miterlimit:4;" d="M 184.998302 38.498666 C 184.998302 35.001823 189.499098 31.998747 189.499098 31.998747 C 189.499098 31.998747 191.002086 30.501257 191.998632 28.501904 C 193.003347 26.502552 196.001154 24.996967 196.997701 24.996967 C 198.002416 24.996967 199.497235 24.495105 200.50195 24.996967 C 201.498496 25.498829 202.503211 25.498829 204.504472 26.502552 C 206.497565 27.498181 208.9971 31.998747 208.9971 31.998747 C 208.9971 31.998747 209.495373 32.500609 211.504802 33.496238 C 213.497895 34.499961 213.497895 39.000528 213.497895 39.000528 C 213.595916 42.303102 212.509517 42.942571 210.001814 43.501094 C 210.001814 43.501094 190.005539 44.002956 188.502551 43.501094 C 186.999563 42.999232 184.998302 42.003604 184.998302 38.498666 Z M 184.998302 38.498666 " transform="matrix(0.478214,0,0,0.482578,-16.742227,-0.191896)"/>
<path style="fill-rule:nonzero;fill:rgb(97.647059%,53.725493%,21.176471%);fill-opacity:1;stroke-width:0.3;stroke-linecap:butt;stroke-linejoin:miter;stroke:rgb(97.254902%,35.686275%,0%);stroke-opacity:1;stroke-miterlimit:4;" d="M 178.98635 9.811603 C 180.562854 9.099283 182.449757 9.431159 184.23864 10.580584 C 186.027522 11.730009 187.702047 13.680794 188.829288 16.173914 C 189.956529 18.667034 190.315939 21.216815 189.997371 23.313302 C 189.670634 25.417883 188.674088 27.052981 187.097584 27.765301 C 185.529249 28.477621 183.634177 28.145744 181.845295 26.996319 C 180.056412 25.854988 178.381887 23.896109 177.254646 21.402989 C 176.127405 18.90987 175.767995 16.360089 176.086563 14.263602 C 176.4133 12.15902 177.409846 10.523922 178.98635 9.811603 Z M 178.98635 9.811603 " transform="matrix(0.478214,0,0,0.482578,-16.742227,-0.191896)"/>
<path style="fill-rule:nonzero;fill:rgb(97.647059%,53.725493%,21.176471%);fill-opacity:1;stroke-width:0.3;stroke-linecap:butt;stroke-linejoin:miter;stroke:rgb(97.254902%,35.686275%,0%);stroke-opacity:1;stroke-miterlimit:4;" d="M 197.479637 0.818564 C 199.195004 0.640484 200.885865 1.547073 202.217317 3.19836 C 203.556936 4.857742 204.520809 7.237538 204.806704 9.965399 C 205.08443 12.685166 204.61883 15.218758 203.654957 17.104787 C 202.682916 18.99891 201.212602 20.237375 199.497235 20.40736 C 197.781868 20.58544 196.091007 19.678852 194.759556 18.01947 C 193.419936 16.368183 192.456063 13.980293 192.170169 11.260526 C 191.892443 8.540759 192.358042 6.007167 193.321915 4.113044 C 194.293956 2.227015 195.76427 0.98855 197.479637 0.818564 Z M 197.479637 0.818564 " transform="matrix(0.478214,0,0,0.482578,-16.742227,-0.191896)"/>
<path style="fill-rule:nonzero;fill:rgb(97.647059%,53.725493%,21.176471%);fill-opacity:1;stroke-width:0.3;stroke-linecap:butt;stroke-linejoin:miter;stroke:rgb(97.254902%,35.686275%,0%);stroke-opacity:1;stroke-miterlimit:4;" d="M 219.852921 10.103006 C 221.388582 10.896271 222.303444 12.579937 222.523992 14.692612 C 222.73637 16.805288 222.254434 19.330786 221.004667 21.767244 C 219.746731 24.203702 217.982354 26.073541 216.136293 27.125832 C 214.290231 28.178123 212.386991 28.412864 210.851329 27.627694 C 209.315668 26.834428 208.392637 25.150763 208.180258 23.038087 C 207.959711 20.925411 208.449816 18.399914 209.707751 15.963456 C 210.957519 13.526998 212.730064 11.665253 214.567957 10.604868 C 216.414019 9.552577 218.317259 9.309741 219.852921 10.103006 Z M 219.852921 10.103006 " transform="matrix(0.478214,0,0,0.482578,-16.742227,-0.191896)"/>
</g>
</svg>
