<svg xmlns="http://www.w3.org/2000/svg" fill="none" viewBox="35.5 0.64 187.22 88.62">
<path d="M89.68 43.06C89.68 47.0733 88.7 50.62 86.74 53.7C84.8733 56.6867 82.3533 58.9733 79.18 60.56C76.1 62.1467 72.8333 62.94 69.38 62.94C65.74 62.94 62.2867 62.0067 59.02 60.14L59.3 58.88L61.68 59.02L64.06 58.88C67.7 58.32 70.5467 56.6867 72.6 53.98C74.6533 51.18 75.68 47.4933 75.68 42.92C75.68 37.7867 74.5133 33.4933 72.18 30.04C69.94 26.4933 66.8133 24.72 62.8 24.72C60.6533 24.72 59.0667 25.3267 58.04 26.54C57.1067 27.7533 56.64 29.1067 56.64 30.6V69.66C56.64 73.3933 56.92 76.3333 57.48 78.48C58.1333 80.6267 59.2533 82.7733 60.84 84.92L61.96 86.6L60.84 88H36.48L35.5 85.48C37.9267 84.8267 39.6067 84.22 40.54 83.66C41.5667 83.1 42.2667 82.3067 42.64 81.28C43.0133 80.2533 43.2 78.62 43.2 76.38V39.14C43.2 35.8733 42.92 33.4 42.36 31.72C41.8933 29.9467 40.7267 28.5 38.86 27.38L37.18 26.4L37.74 24.58C40.4467 23.74 43.9467 22.9933 48.24 22.34C52.6267 21.6867 56.78 21.36 60.7 21.36C70.22 21.36 77.4067 23.3667 82.26 27.38C87.2067 31.3 89.68 36.5267 89.68 43.06ZM121.023 84.64C123.729 84.64 126.109 84.1733 128.163 83.24C130.216 82.2133 132.223 80.5333 134.183 78.2L135.863 79.46C133.716 82.54 130.963 84.9667 127.603 86.74C124.336 88.42 120.743 89.26 116.823 89.26C112.529 89.26 108.656 88.2333 105.203 86.18C101.843 84.1267 99.1825 81.3267 97.2225 77.78C95.2625 74.14 94.2825 70.0333 94.2825 65.46C94.2825 58.18 96.4758 52.3933 100.863 48.1C105.343 43.7133 111.269 41.52 118.643 41.52C123.869 41.52 128.116 42.78 131.383 45.3C134.743 47.7267 136.423 50.9 136.423 54.82C136.423 59.3 134.509 62.8933 130.683 65.6C126.949 68.2133 121.816 69.52 115.283 69.52C112.669 69.52 110.289 69.3333 108.143 68.96C108.609 73.8133 110.009 77.64 112.343 80.44C114.676 83.24 117.569 84.64 121.023 84.64ZM117.103 44.88C114.209 44.88 111.923 46.6533 110.243 50.2C108.656 53.6533 107.863 58.5067 107.863 64.76V67C108.889 67 110.149 66.9067 111.642 66.72C115.563 66.2533 118.549 64.9933 120.603 62.94C122.749 60.7933 123.823 57.9933 123.823 54.54C123.823 51.74 123.169 49.4533 121.863 47.68C120.649 45.8133 119.063 44.88 117.103 44.88ZM158.084 89.26C154.258 89.26 151.504 88.42 149.824 86.74C148.144 84.9667 147.304 82.12 147.304 78.2V48.52H140.304C140.304 46.9333 140.398 45.9067 140.584 45.44C140.771 44.9733 141.331 44.6 142.264 44.32C145.344 43.48 147.771 42.1733 149.544 40.4C151.318 38.6267 152.764 36.06 153.884 32.7C154.164 31.6733 154.631 31.0667 155.284 30.88C155.938 30.6 157.524 30.46 160.044 30.46V43.06H171.524C171.524 44.2733 171.338 45.3933 170.964 46.42C170.591 47.3533 170.078 48.0533 169.424 48.52H160.044V80.02C160.044 82.82 161.211 84.22 163.544 84.22C164.571 84.22 165.691 83.8933 166.904 83.24C168.211 82.5867 169.378 81.7 170.404 80.58L171.524 81.98C167.511 86.8333 163.031 89.26 158.084 89.26Z" fill="#144951"/>
<path d="M204.88 80.16C204.88 82.56 205.64 83.76 207.16 83.76C208.68 83.76 210.16 83.16 211.6 81.96L212.56 83.16C209.6 86.44 206.12 88.08 202.12 88.08C199.24 88.08 197.16 87.36 195.88 85.92C194.6 84.4 193.96 81.96 193.96 78.6V54.84C193.96 53.72 193.44 53.16 192.4 53.16H188.68L188.32 51.84C189.92 50.48 191.92 49.36 194.32 48.48C196.72 47.6 199.12 47.16 201.52 47.16C202.48 47.16 203.28 47.4 203.92 47.88C204.56 48.36 204.88 49 204.88 49.8V80.16ZM192.76 35.64C192.76 34.2 193.56 32.6 195.16 30.84C196.76 29.08 198.24 28.2 199.6 28.2C201.04 28.2 202.56 29.08 204.16 30.84C205.84 32.6 206.68 34.2 206.68 35.64C206.68 37.16 205.84 38.8 204.16 40.56C202.56 42.24 201.04 43.08 199.6 43.08C198.24 43.08 196.76 42.24 195.16 40.56C193.56 38.8 192.76 37.16 192.76 35.64Z" fill="#F68532"/>
<path d="M185 38.5C185 35 189.5 32 189.5 32C189.5 32 191 30.5 192 28.5C193 26.5 196 25 197 25C198 25 199.5 24.5 200.5 25C201.5 25.5 202.5 25.5 204.5 26.5C206.5 27.5 209 32 209 32C209 32 209.5 32.5 211.5 33.5C213.5 34.5 213.5 39 213.5 39C213.601 42.3021 212.51 42.9457 210 43.5C210 43.5 190 44 188.5 43.5C187 43 185 42 185 38.5Z" fill="#F98936" stroke="#F9832F" stroke-width="2"/>
<path d="M178.985 9.81434C180.559 9.10285 182.446 9.43173 184.237 10.5793C186.026 11.726 187.701 13.6806 188.828 16.1743C189.955 18.6679 190.316 21.2162 189.995 23.317C189.673 25.4195 188.673 27.0534 187.099 27.7649C185.525 28.4764 183.638 28.1475 181.847 26.9999C180.058 25.8532 178.383 23.8987 177.256 21.405C176.129 18.9113 175.768 16.3631 176.089 14.2622C176.411 12.1597 177.411 10.5258 178.985 9.81434Z" fill="#F98936" stroke="#F85B00" stroke-width="0.3"/>
<path d="M197.481 0.814574C199.2 0.637855 200.886 1.54712 202.221 3.20254C203.556 4.85664 204.525 7.24066 204.805 9.96291C205.085 12.6852 204.621 15.2166 203.651 17.1077C202.681 19.0003 201.215 20.2337 199.497 20.4104C197.778 20.5872 196.092 19.6779 194.757 18.0225C193.422 16.3684 192.453 13.9843 192.173 11.2621C191.893 8.53985 192.357 6.00837 193.327 4.11729C194.297 2.22469 195.763 0.991293 197.481 0.814574Z" fill="#F98936" stroke="#F85B00" stroke-width="0.3"/>
<path d="M219.854 10.1049C221.391 10.8945 222.307 12.5765 222.523 14.6925C222.739 16.8068 222.251 19.3337 221 21.7677C219.749 24.2017 217.978 26.0698 216.134 27.1252C214.288 28.1815 212.386 28.4153 210.85 27.6257C209.314 26.8361 208.397 25.1541 208.181 23.0381C207.965 20.9238 208.454 18.3969 209.705 15.9629C210.956 13.5289 212.726 11.6609 214.571 10.6054C216.417 9.5491 218.318 9.31534 219.854 10.1049Z" fill="#F98936" stroke="#F85B00" stroke-width="0.3"/>
</svg>